<svg xmlns="http://www.w3.org/2000/svg" enable-background="new 0 0 24 24" viewBox="0 0 24 24">
  <symbol id="add">
    <title>add</title>
    <path class="color" d="M19,13h-6v6h-2v-6H5v-2h6V5h2v6h6V13z" />
  </symbol>

  <symbol id="account_circle">
    <title>user account</title>
    <path d="M0,0h24v24H0V0z" fill="none" />
    <path class="color"
      d="M12,2C6.48,2,2,6.48,2,12s4.48,10,10,10s10-4.48,10-10S17.52,2,12,2z M12,6c1.93,0,3.5,1.57,3.5,3.5S13.93,13,12,13 s-3.5-1.57-3.5-3.5S10.07,6,12,6z M12,20c-2.03,0-4.43-0.82-6.14-2.88C7.55,15.8,9.68,15,12,15s4.45,0.8,6.14,2.12 C16.43,19.18,14.03,20,12,20z" />
  </symbol>

  <symbol id="accessibility">
    <title>accessibility</title>
    <path d="M0 0h24v24H0z" fill="none" />
    <path class="color" d="M12 2c1.1 0 2 .9 2 2s-.9 2-2 2-2-.9-2-2 .9-2 2-2zm9 7h-6v13h-2v-6h-2v6H9V9H3V7h18v2z" />
  </symbol>

  <symbol id="error_outline">
    <title>error outline</title>
    <path d="M0 0h24v24H0V0z" fill="none" />
    <path class="color"
      d="M11 15h2v2h-2zm0-8h2v6h-2zm.99-5C6.47 2 2 6.48 2 12s4.47 10 9.99 10C17.52 22 22 17.52 22 12S17.52 2 11.99 2zM12 20c-4.42 0-8-3.58-8-8s3.58-8 8-8 8 3.58 8 8-3.58 8-8 8z" />
  </symbol>

  <symbol id="feedback_outline">
    <title>feedback outline</title>
    <path d="M0 0h24v24H0V0z" fill="none" />
    <path
      d="M20 2H4c-1.1 0-1.99.9-1.99 2L2 22l4-4h14c1.1 0 2-.9 2-2V4c0-1.1-.9-2-2-2zm0 14H5.17l-.59.59-.58.58V4h16v12zm-9-4h2v2h-2zm0-6h2v4h-2z" />
  </symbol>

  <symbol id="feedback">
    <title>feedback</title>
    <path d="M0 0h24v24H0z" fill="none" />
    <path
      d="M20 2H4c-1.1 0-1.99.9-1.99 2L2 22l4-4h14c1.1 0 2-.9 2-2V4c0-1.1-.9-2-2-2zm-7 12h-2v-2h2v2zm0-4h-2V6h2v4z" />
  </symbol>


  <symbol id="search">
    <title>search</title>
    <path d="M0 0h24v24H0V0z" fill="none" />
    <path
      d="M15.5 14h-.79l-.28-.27C15.41 12.59 16 11.11 16 9.5 16 5.91 13.09 3 9.5 3S3 5.91 3 9.5 5.91 16 9.5 16c1.61 0 3.09-.59 4.23-1.57l.27.28v.79l5 4.99L20.49 19l-4.99-5zm-6 0C7.01 14 5 11.99 5 9.5S7.01 5 9.5 5 14 7.01 14 9.5 11.99 14 9.5 14z" />
  </symbol>

  <symbol id="thumbs_up">
    <title>thumbs up</title>
    <path d="M0 0h24v24H0V0zm0 0h24v24H0V0z" fill="none" />
    <path
      d="M9 21h9c.83 0 1.54-.5 1.84-1.22l3.02-7.05c.09-.23.14-.47.14-.73v-2c0-1.1-.9-2-2-2h-6.31l.95-4.57.03-.32c0-.41-.17-.79-.44-1.06L14.17 1 7.58 7.59C7.22 7.95 7 8.45 7 9v10c0 1.1.9 2 2 2zM9 9l4.34-4.34L12 10h9v2l-3 7H9V9zM1 9h4v12H1z" />
  </symbol>

  <symbol id="trending_up">
    <title>trending up</title>
    <path d="M0 0h24v24H0z" fill="none" />
    <path d="M16 6l2.29 2.29-4.88 4.88-4-4L2 16.59 3.41 18l6-6 4 4 6.3-6.29L22 12V6z" />
  </symbol>

</svg>
